HIERARCHY
ROOT Hips
{
	OFFSET 0.00000 0.00000 0.00000
	CHANNELS 6 Xposition Yposition Zposition Zrotation Yrotation Xrotation 
	JOINT LHipJoint
	{
		OFFSET 0 0 0
		CHANNELS 3 Zrotation Yrotation Xrotation
		JOINT LeftUpLeg
		{
			OFFSET 1.62329 -1.80800 0.67318
			CHANNELS 3 Zrotation Yrotation Xrotation
			JOINT LeftLeg
			{
				OFFSET 2.57139 -7.06484 0.00000
				CHANNELS 3 Zrotation Yrotation Xrotation
				JOINT LeftFoot
				{
					OFFSET 2.52017 -6.92413 0.00000
					CHANNELS 3 Zrotation Yrotation Xrotation
					JOINT LeftToeBase
					{
						OFFSET 0.23295 -0.64001 2.10214
						CHANNELS 3 Zrotation Yrotation Xrotation
						End Site
						{
							OFFSET 0.00000 -0.00000 1.10139
						}
					}
				}
			}
		}
	}
	JOINT RHipJoint
	{
		OFFSET 0 0 0
		CHANNELS 3 Zrotation Yrotation Xrotation
		JOINT RightUpLeg
		{
			OFFSET -1.48061 -1.80800 0.67318
			CHANNELS 3 Zrotation Yrotation Xrotation
			JOINT RightLeg
			{
				OFFSET -2.63258 -7.23296 0.00000
				CHANNELS 3 Zrotation Yrotation Xrotation
				JOINT RightFoot
				{
					OFFSET -2.54779 -7.00000 0.00000
					CHANNELS 3 Zrotation Yrotation Xrotation
					JOINT RightToeBase
					{
						OFFSET -0.23067 -0.63376 2.12161
						CHANNELS 3 Zrotation Yrotation Xrotation
						End Site
						{
							OFFSET -0.00000 -0.00000 1.11000
						}
					}
				}
			}
		}
	}
	JOINT LowerBack
	{
		OFFSET 0 0 0
		CHANNELS 3 Zrotation Yrotation Xrotation
		JOINT Spine
		{
			OFFSET -0.02108 2.07573 -0.16981
			CHANNELS 3 Zrotation Yrotation Xrotation
			JOINT Spine1
			{
				OFFSET 0.05070 2.08439 -0.03141
				CHANNELS 3 Zrotation Yrotation Xrotation
				JOINT Neck
				{
					OFFSET 0 0 0
					CHANNELS 3 Zrotation Yrotation Xrotation
					JOINT Neck1
					{
						OFFSET -0.10731 1.60408 0.31370
						CHANNELS 3 Zrotation Yrotation Xrotation
						JOINT Head
						{
							OFFSET 0.08411 1.65679 -0.30822
							CHANNELS 3 Zrotation Yrotation Xrotation
							End Site
							{
								OFFSET 0.03911 1.69149 -0.14146
							}
						}
					}
				}
				JOINT LeftShoulder
				{
					OFFSET 0 0 0
					CHANNELS 3 Zrotation Yrotation Xrotation
					JOINT LeftArm
					{
						OFFSET 3.52315 0.73219 -0.54694
						CHANNELS 3 Zrotation Yrotation Xrotation
						JOINT LeftForeArm
						{
							OFFSET 5.32462 -0.00000 -0.00000
							CHANNELS 3 Zrotation Yrotation Xrotation
							JOINT LeftHand
							{
								OFFSET 3.48402 -0.00000 -0.00000
								CHANNELS 3 Zrotation Yrotation Xrotation
								JOINT LeftFingerBase
								{
									OFFSET 0 0 0
									CHANNELS 3 Zrotation Yrotation Xrotation
									JOINT LeftHandIndex1
									{
										OFFSET 0.57248 -0.00000 -0.00000
										CHANNELS 3 Zrotation Yrotation Xrotation
										End Site
										{
											OFFSET 0.46154 -0.00000 -0.00000
										}
									}
								}
								JOINT LThumb
								{
									OFFSET 0 0 0
									CHANNELS 3 Zrotation Yrotation Xrotation
									End Site
									{
										OFFSET 0.46859 -0.00000 0.46859
									}
								}
							}
						}
					}
				}
				JOINT RightShoulder
				{
					OFFSET 0 0 0
					CHANNELS 3 Zrotation Yrotation Xrotation
					JOINT RightArm
					{
						OFFSET -3.41766 0.93592 -0.10019
						CHANNELS 3 Zrotation Yrotation Xrotation
						JOINT RightForeArm
						{
							OFFSET -5.33589 -0.00000 -0.00000
							CHANNELS 3 Zrotation Yrotation Xrotation
							JOINT RightHand
							{
								OFFSET -3.64134 -0.00000 -0.00000
								CHANNELS 3 Zrotation Yrotation Xrotation
								JOINT RightFingerBase
								{
									OFFSET 0 0 0
									CHANNELS 3 Zrotation Yrotation Xrotation
									JOINT RightHandIndex1
									{
										OFFSET -0.73481 -0.00000 -0.00000
										CHANNELS 3 Zrotation Yrotation Xrotation
										End Site
										{
											OFFSET -0.59242 -0.00000 -0.00000
										}
									}
								}
								JOINT RThumb
								{
									OFFSET 0 0 0
									CHANNELS 3 Zrotation Yrotation Xrotation
									End Site
									{
										OFFSET -0.60147 -0.00000 0.60147
									}
								}
							}
						}
					}
				}
			}
		}
	}
}
MOTION
Frames: 12
Frame Time: .0083333
-12.5978 17.6923 -4.8111 0 0 0 0 0 0 -21 0 0 0 0 0 0 0 0 0 0 0 0 0 0 21 0 0 0 0 0 0 0 0 0 0 0 0 0 0 0 0 0 0 0 0 0 0 -16 0 0 21 0 0 11 0 0 0 -8 0 0 0 0 0 0 0 0 0 0 0 0 0 0 0 0 0 0 0 0 8 0 0 0 0 0 0 0 0 0 0 0 0 0 0 0 0 0
-12.5978 17.6923 -4.8111 4.2283 48.1170 9.2081 0.0000 0.0000 0.0000 -27.2507 -0.9513 -13.6258 2.0140 8.8951 25.4678 0.6591 -6.6395 -14.5195 0.1885 -2.7965 -7.7126 0.0000 0.0000 0.0000 13.1630 8.0721 -32.2968 -3.7468 -11.8156 35.0826 -0.4238 -3.3779 -14.0036 -0.1828 -2.7536 7.5934 -6.7037 0.3770 2.4626 0.8570 0.3523 0.8363 4.6406 0.1749 -0.5638 -8.4005 1.8617 -15.6075 -0.0821 6.7868 38.5597 2.7363 1.8606 16.2026 0.0000 -0.0000 0.0000 -87.5913 -0.0038 7.6058 12.2860 -20.2322 -2.2002 -0.0000 -0.0000 8.6771 12.0678 24.8154 5.1273 -7.1250 0.0000 -0.0000 -18.3898 54.3308 -4.3277 0.0000 -0.0000 0.0000 85.2288 -1.2875 21.9285 -19.7044 30.2845 -5.3815 0.0000 0.0000 19.8199 -21.4572 3.3750 -1.3255 7.1250 -0.0000 -0.0000 3.9205 -26.3505 1.7769
-12.5771 17.6949 -4.7944 4.1932 48.2601 9.1768 0.0000 0.0000 0.0000 -27.2064 -1.0099 -13.4630 2.0040 8.8744 25.4031 0.6589 -6.7242 -14.5241 0.1587 -2.5669 -7.0752 0.0000 0.0000 0.0000 13.1633 8.2347 -32.3710 -3.6678 -11.7047 34.6953 -0.3710 -3.2608 -13.1715 -0.1980 -2.8657 7.9051 -6.6281 0.3488 2.5411 0.8454 0.3118 0.8649 4.5869 0.1543 -0.5727 -8.3412 1.8815 -15.5069 -0.1236 6.8060 38.5669 2.7086 1.8741 16.1854 -0.0000 -0.0000 0.0000 -87.6247 0.0774 8.0404 12.3592 -20.3412 -2.2256 -0.0000 -0.0000 8.5775 12.0358 24.9008 5.1298 -7.1250 0.0000 -0.0000 -18.4682 54.4061 -4.3815 -0.0000 -0.0000 0.0000 85.2159 -1.3324 21.5895 -19.3574 29.8603 -5.2076 0.0000 0.0000 19.9130 -21.4963 3.1656 -1.2459 7.1250 -0.0000 -0.0000 3.8947 -26.5741 1.7447
-12.5575 17.6949 -4.7756 4.1114 48.3541 9.0870 0.0000 0.0000 0.0000 -27.1369 -1.0537 -13.2863 1.9981 8.8622 25.3652 0.6647 -6.7381 -14.5877 0.1638 -2.6078 -7.1887 0.0000 0.0000 0.0000 13.1312 8.6336 -32.3320 -3.5948 -11.6007 34.3336 -0.3235 -3.3905 -12.5368 -0.2300 -3.0866 8.5199 -6.5238 0.3246 2.6724 0.8318 0.2743 0.9023 4.5146 0.1357 -0.6024 -8.3146 1.9204 -15.5271 -0.1143 6.8689 38.6548 2.7227 1.9012 16.2328 -0.0000 -0.0000 0.0000 -87.5851 0.1753 8.6435 12.4688 -20.5040 -2.2638 -0.0000 -0.0000 8.2206 12.0679 24.9563 5.1545 -7.1250 0.0000 -0.0000 -18.4670 54.4648 -4.4081 -0.0000 -0.0000 0.0000 85.2632 -1.3295 21.0488 -19.0212 29.4450 -5.0413 0.0000 0.0000 20.1232 -21.4898 3.1902 -1.2551 7.1250 -0.0000 -0.0000 3.8993 -26.5479 1.7492
-12.5366 17.6959 -4.7548 3.8496 48.4394 8.9113 0.0000 0.0000 0.0000 -26.9438 -1.2065 -13.0895 1.9863 8.8375 25.2883 0.6762 -6.6126 -14.6988 0.1810 -2.7402 -7.5562 0.0000 0.0000 0.0000 13.2616 8.9760 -32.3394 -3.5322 -11.5105 34.0215 -0.2684 -3.6470 -11.8256 -0.2363 -3.1286 8.6370 -6.3197 0.3056 2.6621 0.8814 0.2577 0.9767 4.4516 0.1229 -0.5172 -8.3890 1.8989 -15.5970 -0.0826 6.8622 38.6961 2.7519 1.8881 16.2679 0.0000 0.0000 0.0000 -87.6758 0.1644 8.9090 12.5586 -20.6370 -2.2954 -0.0000 -0.0000 8.0932 12.0619 25.0503 5.1699 -7.1250 0.0000 -0.0000 -18.5251 54.5532 -4.4632 0.0000 0.0000 0.0000 85.2860 -1.2132 20.4129 -18.6553 28.9881 -4.8626 0.0000 0.0000 20.3569 -21.2238 3.1681 -1.2295 7.1250 -0.0000 -0.0000 4.1023 -26.5772 1.8378
-12.5158 17.7016 -4.7314 3.8567 48.5627 8.9187 0.0000 0.0000 0.0000 -26.9213 -1.2239 -12.9126 1.9736 8.8109 25.2054 0.6787 -6.7412 -14.7359 0.1572 -2.5550 -7.0422 0.0000 0.0000 0.0000 13.2009 9.2974 -32.3208 -3.4822 -11.4375 33.7700 -0.2241 -3.9795 -11.3120 -0.2308 -3.0923 8.5359 -6.4091 0.2713 2.6534 0.9362 0.2122 1.0219 4.5607 0.0969 -0.4603 -8.3439 1.8935 -15.4752 -0.2328 6.8777 38.6207 2.6752 1.8867 16.2109 0.0000 -0.0000 0.0000 -87.8625 0.0888 8.8361 12.5405 -20.6102 -2.2890 -0.0000 -0.0000 8.3276 12.0284 25.0551 5.1561 -7.1250 0.0000 -0.0000 -18.5609 54.5515 -4.4715 0.0000 -0.0000 0.0000 85.2051 -1.2824 19.9727 -18.3844 28.6466 -4.7321 0.0000 0.0000 20.4745 -21.1582 2.8603 -1.1064 7.1250 -0.0000 -0.0000 4.1595 -26.9077 1.8312
-12.4964 17.7017 -4.7114 4.0041 48.7877 9.0452 0.0000 0.0000 0.0000 -26.9977 -1.1477 -12.8092 1.9597 8.7816 25.1145 0.6741 -6.9783 -14.7088 0.1545 -2.5324 -6.9796 0.0000 0.0000 0.0000 13.0686 9.3540 -32.3906 -3.4460 -11.3842 33.5867 -0.1967 -4.0932 -10.9033 -0.3220 -3.6472 10.0862 -6.4780 0.2429 2.7526 0.9152 0.1657 1.0234 4.5791 0.0753 -0.5086 -8.4150 1.8356 -15.4196 -0.1387 6.7802 38.6834 2.7124 1.8486 16.2266 0.0000 -0.0000 0.0000 -87.9230 0.1029 9.1906 12.5905 -20.6842 -2.3066 -0.0000 -0.0000 8.2900 11.7995 24.9654 5.0388 -7.1250 0.0000 -0.0000 -18.7374 54.4231 -4.4568 0.0000 -0.0000 0.0000 85.2486 -1.4957 19.2591 -18.2658 28.4962 -4.6754 0.0000 0.0000 20.6766 -21.0582 2.9483 -1.1345 7.1250 -0.0000 -0.0000 4.2336 -26.8155 1.8733
-12.4747 17.7010 -4.6897 3.9764 48.9771 9.0727 0.0000 0.0000 0.0000 -26.9558 -1.1148 -12.6875 1.9417 8.7435 24.9962 0.6716 -7.1371 -14.6986 0.1609 -2.5842 -7.1231 0.0000 0.0000 0.0000 13.0470 9.4965 -32.4619 -3.4256 -11.3541 33.4836 -0.1892 -4.2753 -10.9193 -0.5092 -4.5741 12.6977 -6.5028 0.1756 2.7718 0.9678 0.0737 1.0048 4.6509 0.0303 -0.5268 -8.4162 1.8180 -15.3761 -0.1678 6.7724 38.7551 2.7002 1.8392 16.2566 -0.0000 0.0000 0.0000 -88.0698 0.2332 9.3783 12.6729 -20.8060 -2.3358 -0.0000 -0.0000 8.3566 11.7006 24.5687 4.9216 -7.1250 0.0000 -0.0000 -18.6172 54.0281 -4.2443 -0.0000 0.0000 0.0000 85.2461 -1.8019 18.7264 -18.2342 28.4559 -4.6603 0.0000 0.0000 20.9056 -21.1116 2.8253 -1.0903 7.1250 -0.0000 -0.0000 4.1960 -26.9459 1.8436
-12.4542 17.6977 -4.6673 3.9688 49.1148 9.0787 0.0000 0.0000 0.0000 -26.9319 -1.4074 -12.4121 1.9279 8.7143 24.9056 0.6815 -6.9610 -14.7851 0.1513 -2.5066 -6.9080 0.0000 0.0000 0.0000 13.0287 9.6499 -32.5154 -3.4175 -11.3421 33.4425 -0.1578 -4.7939 -10.7882 -0.6169 -5.0266 13.9843 -6.5201 0.1108 2.7941 1.0207 -0.0130 1.0419 4.7186 -0.0154 -0.4897 -8.5088 1.8382 -15.4369 -0.1371 6.8446 38.8586 2.7474 1.8540 16.3178 -0.0000 -0.0000 0.0000 -88.2030 0.2558 9.5159 12.7154 -20.8688 -2.3509 -0.0000 -0.0000 8.3991 11.8171 24.4378 4.9470 -7.1250 0.0000 -0.0000 -18.4320 53.9249 -4.1526 -0.0000 -0.0000 0.0000 85.1850 -1.9488 18.3219 -18.1298 28.3230 -4.6106 0.0000 0.0000 21.0146 -21.0404 2.5633 -0.9856 7.1250 -0.0000 -0.0000 4.2574 -27.2271 1.8426
-12.4326 17.6981 -4.6474 4.0056 49.2354 9.2080 0.0000 0.0000 0.0000 -26.9462 -1.6579 -12.2733 1.9180 8.6931 24.8398 0.6916 -6.8691 -14.8815 0.1340 -2.3598 -6.5011 0.0000 0.0000 0.0000 13.0235 9.6245 -32.7609 -3.4227 -11.3497 33.4685 -0.1015 -5.4043 -10.2641 -0.5946 -4.9365 13.7276 -6.4456 0.0704 2.7623 0.9820 -0.0632 1.0327 4.6377 -0.0406 -0.4751 -8.5165 1.8391 -15.4586 -0.1029 6.8456 38.9119 2.7665 1.8551 16.3484 -0.0000 -0.0000 0.0000 -88.1402 0.3127 10.0511 12.7933 -20.9836 -2.3787 -0.0000 -0.0000 8.1733 11.8665 24.8820 5.0523 -7.1250 0.0000 -0.0000 -18.6250 54.3566 -4.3979 -0.0000 -0.0000 0.0000 85.2225 -2.1389 18.0082 -18.0031 28.1611 -4.5507 0.0000 0.0000 20.9222 -21.0910 2.3199 -0.8944 7.1250 -0.0000 -0.0000 4.2255 -27.4864 1.8028
-12.4112 17.6979 -4.6298 4.0042 49.4601 9.3385 0.0000 0.0000 0.0000 -26.9178 -1.9529 -12.1798 1.9076 8.6709 24.7710 0.6958 -6.8314 -14.9221 0.1155 -2.1912 -6.0345 0.0000 0.0000 0.0000 13.0225 9.5784 -33.0364 -3.4473 -11.3862 33.5937 -0.0585 -6.0684 -10.0957 -0.7541 -5.5463 15.4735 -6.3346 0.0475 2.7372 0.9652 -0.0898 1.0127 4.5581 -0.0531 -0.4788 -8.5242 1.7551 -15.4975 -0.0519 6.7133 38.9733 2.7714 1.8028 16.3943 -0.0000 0.0000 0.0000 -88.1268 0.3236 10.6480 12.8904 -21.1264 -2.4136 -0.0000 -0.0000 7.8307 11.9904 25.2106 5.1691 -7.1250 0.0000 -0.0000 -18.6854 54.6919 -4.5680 -0.0000 0.0000 0.0000 85.2132 -2.3728 17.6116 -17.8991 28.0277 -4.5017 0.0000 0.0000 20.7281 -21.0581 2.0266 -0.7801 7.1250 -0.0000 -0.0000 4.2597 -27.8003 1.7859
-12.3916 17.6970 -4.6085 4.0090 49.6428 9.4473 0.0000 0.0000 0.0000 -26.8862 -2.1470 -12.0961 1.8996 8.6538 24.7182 0.7026 -6.8288 -14.9924 0.1159 -2.1948 -6.0442 0.0000 0.0000 0.0000 13.0685 9.4997 -33.3172 -3.4931 -11.4535 33.8250 -0.0193 -6.8118 -10.1705 -1.0288 -6.4518 18.1012 -6.3017 0.0426 2.7942 0.9794 -0.1010 0.9591 4.5549 -0.0545 -0.5648 -8.4769 1.6837 -15.4328 -0.0840 6.6034 39.0188 2.7308 1.7601 16.4128 -0.0000 0.0000 0.0000 -88.2322 0.4018 10.9839 12.9939 -21.2783 -2.4511 -0.0000 -0.0000 7.6238 12.0543 25.1386 5.1835 -7.1250 0.0000 -0.0000 -18.5817 54.6357 -4.5155 -0.0000 0.0000 0.0000 85.2492 -2.6357 16.9940 -17.8196 27.9256 -4.4645 0.0000 0.0000 20.6518 -21.0318 1.9783 -0.7605 7.1250 -0.0000 -0.0000 4.2815 -27.8522 1.7898
